<?xml version="1.0" encoding="utf-8"?>
<!-- Generator: Adobe Illustrator 25.4.1, SVG Export Plug-In . SVG Version: 6.00 Build 0)  -->
<svg version="1.1" id="Layer_1" xmlns="http://www.w3.org/2000/svg" xmlns:xlink="http://www.w3.org/1999/xlink" x="0px" y="0px"
	 viewBox="0 0 46 46" style="enable-background:new 0 0 46 46;" xml:space="preserve">
<style type="text/css">
	.st0{clip-path:url(#SVGID_00000018235566201101220440000017065132777245300883_);}
	.st1{clip-path:url(#SVGID_00000083049235121416303000000011458821880176392873_);}
	.st2{clip-path:url(#SVGID_00000008836969126423697340000018297482748914807687_);}
	.st3{clip-path:url(#SVGID_00000034769616004128253000000008012009529552028076_);}
	.st4{fill:#FF9900;}
	.st5{fill-rule:evenodd;clip-rule:evenodd;}
</style>
<g>
	<defs>
		<rect id="SVGID_1_" x="-35.4" y="-35.4" width="116.7" height="116.7"/>
	</defs>
	<defs>
		<path id="SVGID_00000038399689595103593760000000826094275656925599_" d="M-22.7-27.7"/>
	</defs>
	<defs>
		<path id="SVGID_00000010302074320765491610000017426157010080231356_" d="M-37.9-37.9H83.9V83.9H-37.9V-37.9z M-37.9-37.9"/>
	</defs>
	<clipPath id="SVGID_00000181061402136916398470000010648561552541054085_">
		<use xlink:href="#SVGID_1_"  style="overflow:visible;"/>
	</clipPath>
	
		<clipPath id="SVGID_00000011719029914293488280000014419299889309225361_" style="clip-path:url(#SVGID_00000181061402136916398470000010648561552541054085_);">
		<use xlink:href="#SVGID_00000038399689595103593760000000826094275656925599_"  style="overflow:visible;"/>
	</clipPath>
	
		<clipPath id="SVGID_00000183959956214066074500000018101883531927017646_" style="clip-path:url(#SVGID_00000011719029914293488280000014419299889309225361_);">
		<use xlink:href="#SVGID_00000010302074320765491610000017426157010080231356_"  style="overflow:visible;"/>
	</clipPath>
</g>
<g>
	<defs>
		<rect id="SVGID_00000169522281008512334210000018225683409388544132_" x="-35.4" y="-35.4" width="116.7" height="116.7"/>
	</defs>
	<defs>
		<path id="SVGID_00000063625417171665764440000012817470094312707769_" d="M-22.7-25.2c-1.4,0-2.5,1.2-2.5,2.5v91.4
			c0,1.4,1.2,2.5,2.5,2.5h91.4c1.4,0,2.5-1.2,2.5-2.5v-91.4c0-1.4-1.2-2.5-2.5-2.5H-22.7L-22.7-25.2z M-22.7-25.2"/>
	</defs>
	<defs>
		<path id="SVGID_00000058562776541435413610000016100605970212211107_" d="M-37.9-37.9H83.9V83.9H-37.9V-37.9z M-37.9-37.9"/>
	</defs>
	<clipPath id="SVGID_00000082368920321728712790000016866677132751202969_">
		<use xlink:href="#SVGID_00000169522281008512334210000018225683409388544132_"  style="overflow:visible;"/>
	</clipPath>
	
		<clipPath id="SVGID_00000152964695686578879540000005285765282536065956_" style="clip-path:url(#SVGID_00000082368920321728712790000016866677132751202969_);">
		<use xlink:href="#SVGID_00000063625417171665764440000012817470094312707769_"  style="overflow:visible;"/>
	</clipPath>
	
		<clipPath id="SVGID_00000077302998958936572540000008628340533949958539_" style="clip-path:url(#SVGID_00000152964695686578879540000005285765282536065956_);">
		<use xlink:href="#SVGID_00000058562776541435413610000016100605970212211107_"  style="overflow:visible;"/>
	</clipPath>
</g>
<path class="st4" d="M39.8,37.7c-19,9-30.8,1.5-38.3-3.1c-0.5-0.3-1.3,0.1-0.6,0.9c2.5,3,10.7,10.4,21.5,10.4
	c10.8,0,17.2-5.9,18-6.9C41.2,37.9,40.6,37.4,39.8,37.7L39.8,37.7z M45.2,34.8c-0.5-0.7-3.1-0.8-4.7-0.6c-1.6,0.2-4.1,1.2-3.9,1.8
	c0.1,0.2,0.3,0.1,1.5,0c1.1-0.1,4.3-0.5,4.9,0.3c0.7,0.9-1,5-1.3,5.6c-0.3,0.7,0.1,0.8,0.7,0.4c0.5-0.4,1.5-1.6,2.2-3.2
	C45.1,37.5,45.5,35.3,45.2,34.8L45.2,34.8z"/>
<path class="st5" d="M27.1,19.5c0,2.4,0.1,4.3-1.1,6.5c-1,1.7-2.5,2.8-4.2,2.8c-2.3,0-3.7-1.8-3.7-4.4c0-5.2,4.6-6.1,9-6.1V19.5z
	 M33.2,34.3c-0.4,0.4-1,0.4-1.4,0.1c-2-1.7-2.4-2.5-3.5-4.1c-3.3,3.4-5.7,4.4-10,4.4c-5.1,0-9.1-3.2-9.1-9.5c0-4.9,2.7-8.3,6.5-9.9
	c3.3-1.5,7.9-1.7,11.4-2.1v-0.8c0-1.4,0.1-3.2-0.7-4.4c-0.7-1.1-2.2-1.6-3.4-1.6c-2.3,0-4.4,1.2-4.9,3.7c-0.1,0.5-0.5,1.1-1.1,1.1
	l-5.9-0.6c-0.5-0.1-1-0.5-0.9-1.3c1.4-7.2,7.8-9.3,13.6-9.3c3,0,6.8,0.8,9.2,3c3,2.8,2.7,6.5,2.7,10.5V23c0,2.8,1.2,4.1,2.3,5.6
	c0.4,0.5,0.5,1.2,0,1.6C36.6,31.3,34.4,33.3,33.2,34.3L33.2,34.3"/>
</svg>
