<?xml version="1.0" encoding="utf-8"?>
<!-- Generator: Adobe Illustrator 25.4.1, SVG Export Plug-In . SVG Version: 6.00 Build 0)  -->
<svg version="1.1" id="Layer_1" xmlns="http://www.w3.org/2000/svg" xmlns:xlink="http://www.w3.org/1999/xlink" x="0px" y="0px"
	 viewBox="0 0 46 46" style="enable-background:new 0 0 46 46;" xml:space="preserve">
<style type="text/css">
	.st0{fill-rule:evenodd;clip-rule:evenodd;fill:#FFFFFF;}
</style>
<g>
	<path class="st0" d="M39.8,37.7c-19,9-30.8,1.5-38.3-3.1c-0.5-0.3-1.3,0.1-0.6,0.9c2.5,3,10.7,10.4,21.5,10.4
		c10.8,0,17.2-5.9,18-6.9C41.2,37.9,40.6,37.4,39.8,37.7z"/>
	<path class="st0" d="M45.2,34.8c-0.5-0.7-3.1-0.8-4.7-0.6s-4.1,1.2-3.9,1.8c0.1,0.2,0.3,0.1,1.5,0c1.1-0.1,4.3-0.5,4.9,0.3
		c0.7,0.9-1,5-1.3,5.6c-0.3,0.7,0.1,0.8,0.7,0.4c0.5-0.4,1.5-1.6,2.2-3.2C45.1,37.5,45.5,35.3,45.2,34.8z"/>
	<path class="st0" d="M27.1,13.2c-3.5,0.4-8.1,0.6-11.4,2.1c-3.8,1.6-6.5,5-6.5,9.9c0,6.3,4,9.5,9.1,9.5c4.3,0,6.7-1,10-4.4
		c1.1,1.6,1.5,2.4,3.5,4.1c0.4,0.3,1,0.3,1.4-0.1c1.2-1,3.4-3,4.8-4.1c0.5-0.4,0.4-1.1,0-1.6c-1.1-1.5-2.3-2.8-2.3-5.6v-9.5
		c0-4,0.3-7.7-2.7-10.5c-2.4-2.2-6.2-3-9.2-3C18,0,11.6,2.1,10.2,9.3c-0.1,0.8,0.4,1.2,0.9,1.3l5.9,0.6c0.6,0,1-0.6,1.1-1.1
		c0.5-2.5,2.6-3.7,4.9-3.7c1.2,0,2.7,0.5,3.4,1.6c0.8,1.2,0.7,3,0.7,4.4V13.2z M26,26c-1,1.7-2.5,2.8-4.2,2.8
		c-2.3,0-3.7-1.8-3.7-4.4c0-5.2,4.6-6.1,9-6.1v1.2C27.1,21.9,27.2,23.8,26,26z"/>
</g>
</svg>
