<?xml version="1.0" encoding="utf-8"?>
<!-- Generator: Adobe Illustrator 25.4.1, SVG Export Plug-In . SVG Version: 6.00 Build 0)  -->
<svg version="1.1" id="Layer_1" xmlns="http://www.w3.org/2000/svg" xmlns:xlink="http://www.w3.org/1999/xlink" x="0px" y="0px"
	 viewBox="0 0 46 46" style="enable-background:new 0 0 46 46;" xml:space="preserve">
<style type="text/css">
	.st0{clip-path:url(#SVGID_00000183967138045085304130000011738282129036501181_);}
	.st1{clip-path:url(#SVGID_00000151505035795784327230000006203527105591561877_);}
	.st2{clip-path:url(#SVGID_00000176765565669439146280000015368092272187543985_);}
	.st3{clip-path:url(#SVGID_00000104680805432786581080000008270498368578374072_);}
</style>
<g>
	<defs>
		<rect id="SVGID_1_" x="-35.4" y="-35.4" width="116.7" height="116.7"/>
	</defs>
	<defs>
		<path id="SVGID_00000075147459224274587890000005361304313383843715_" d="M-22.7-27.7"/>
	</defs>
	<defs>
		<path id="SVGID_00000129180193217716569990000000448016929785424009_" d="M-37.9-37.9H83.9V83.9H-37.9V-37.9z M-37.9-37.9"/>
	</defs>
	<clipPath id="SVGID_00000180336512699396243390000006027635621658080910_">
		<use xlink:href="#SVGID_1_"  style="overflow:visible;"/>
	</clipPath>
	
		<clipPath id="SVGID_00000127724673869246743640000012142331516368086412_" style="clip-path:url(#SVGID_00000180336512699396243390000006027635621658080910_);">
		<use xlink:href="#SVGID_00000075147459224274587890000005361304313383843715_"  style="overflow:visible;"/>
	</clipPath>
	
		<clipPath id="SVGID_00000160911157248201227250000004284081377874385598_" style="clip-path:url(#SVGID_00000127724673869246743640000012142331516368086412_);">
		<use xlink:href="#SVGID_00000129180193217716569990000000448016929785424009_"  style="overflow:visible;"/>
	</clipPath>
</g>
<g>
	<defs>
		<rect id="SVGID_00000132768173627044484170000009625383944229673123_" x="-35.4" y="-35.4" width="116.7" height="116.7"/>
	</defs>
	<defs>
		<path id="SVGID_00000041287558162069978080000000265381203250895506_" d="M-22.7-25.2c-1.4,0-2.5,1.2-2.5,2.5v91.4
			c0,1.4,1.2,2.5,2.5,2.5h91.4c1.4,0,2.5-1.2,2.5-2.5v-91.4c0-1.4-1.2-2.5-2.5-2.5H-22.7L-22.7-25.2z M-22.7-25.2"/>
	</defs>
	<defs>
		<path id="SVGID_00000137098809056500607180000016644306771512850110_" d="M-37.9-37.9H83.9V83.9H-37.9V-37.9z M-37.9-37.9"/>
	</defs>
	<clipPath id="SVGID_00000147941149543229210980000011116134739504844194_">
		<use xlink:href="#SVGID_00000132768173627044484170000009625383944229673123_"  style="overflow:visible;"/>
	</clipPath>
	
		<clipPath id="SVGID_00000170249174083136268080000010852951585320907157_" style="clip-path:url(#SVGID_00000147941149543229210980000011116134739504844194_);">
		<use xlink:href="#SVGID_00000041287558162069978080000000265381203250895506_"  style="overflow:visible;"/>
	</clipPath>
	
		<clipPath id="SVGID_00000021838658894477884950000002737231541791202964_" style="clip-path:url(#SVGID_00000170249174083136268080000010852951585320907157_);">
		<use xlink:href="#SVGID_00000137098809056500607180000016644306771512850110_"  style="overflow:visible;"/>
	</clipPath>
</g>
<path d="M41.8,33.8c-0.4,1.2-0.8,2.3-1.4,3.4c-0.6,1.1-1.1,2.1-1.7,3c-0.6,0.9-1.2,1.7-1.8,2.4c-0.6,0.7-1,1.2-1.4,1.5
	c-0.6,0.6-1.3,1-1.9,1.3c-0.7,0.3-1.3,0.5-2.1,0.5c-0.5,0-1-0.1-1.7-0.3c-0.6-0.2-1.3-0.4-2-0.6c-0.7-0.2-1.4-0.4-2.1-0.6
	c-0.7-0.2-1.3-0.3-1.9-0.3c-0.6,0-1.3,0.1-2,0.3c-0.7,0.2-1.4,0.4-2.2,0.6c-0.7,0.2-1.4,0.4-2,0.6c-0.6,0.2-1.1,0.3-1.5,0.3
	c-0.6,0-1.1-0.1-1.6-0.3c-0.5-0.2-1.1-0.5-1.6-0.9c-0.6-0.4-1.2-1-1.8-1.8c-0.6-0.8-1.3-1.7-2.1-2.8c-0.7-1-1.4-2.2-2-3.4
	c-0.6-1.2-1.1-2.5-1.5-3.9c-0.4-1.3-0.8-2.7-1-4c-0.2-1.4-0.3-2.7-0.3-3.9c0-2,0.3-3.8,0.9-5.5c0.6-1.7,1.4-3.1,2.4-4.4
	c1-1.2,2.3-2.2,3.6-2.9c1.4-0.7,2.9-1,4.5-1c0.5,0,1.1,0.1,1.9,0.3c0.8,0.2,1.6,0.4,2.4,0.7c0.8,0.2,1.5,0.5,2.2,0.7
	c0.6,0.2,1,0.3,1.2,0.3c0.1,0,0.4-0.1,1-0.3c0.6-0.2,1.4-0.5,2.2-0.7c0.8-0.3,1.7-0.5,2.6-0.7c0.9-0.2,1.7-0.3,2.3-0.3
	c2,0,3.8,0.4,5.3,1.3c1.6,0.8,2.8,2,3.8,3.3c-1.7,1-3,2.3-3.8,3.7c-0.8,1.4-1.2,3.1-1.2,5c0,2,0.5,3.9,1.6,5.6
	C38.3,31.7,39.8,32.9,41.8,33.8z M32.2,0c0,0.2,0,0.3,0,0.5c0,0.2,0,0.3,0,0.5c0,1.2-0.2,2.4-0.7,3.5c-0.5,1.2-1.1,2.2-2,3.1
	c-0.8,0.9-1.7,1.7-2.8,2.2c-1,0.6-2.1,0.8-3.2,0.8c-0.4,0-0.7-0.1-0.7-0.2c0-0.2,0-0.4,0-0.7c0-1.1,0.3-2.3,0.8-3.4
	c0.5-1.1,1.2-2.2,2-3.1c0.8-0.9,1.8-1.7,2.9-2.3C29.8,0.4,30.9,0.1,32.2,0z"/>
</svg>
