<?xml version="1.0" encoding="utf-8"?>
<!-- Generator: Adobe Illustrator 25.4.1, SVG Export Plug-In . SVG Version: 6.00 Build 0)  -->
<svg version="1.1" id="Layer_1" xmlns="http://www.w3.org/2000/svg" xmlns:xlink="http://www.w3.org/1999/xlink" x="0px" y="0px"
	 viewBox="0 0 46 46" style="enable-background:new 0 0 46 46;" xml:space="preserve">
<style type="text/css">
	.st0{clip-path:url(#SVGID_00000165944804899337608180000010486517204192181401_);fill:none;}
	.st1{clip-path:url(#SVGID_00000035499663793821516150000007945902694842247861_);}
	.st2{fill:#FFFFFF;}
</style>
<g>
	<g>
		<defs>
			<rect id="SVGID_1_" x="-35.4" y="-35.4" width="116.7" height="116.7"/>
		</defs>
		<clipPath id="SVGID_00000068662133253164324920000006877552512590048135_">
			<use xlink:href="#SVGID_1_"  style="overflow:visible;"/>
		</clipPath>
	</g>
	<g>
		<defs>
			<rect id="SVGID_00000090990175059853857480000004005585346200901265_" x="-35.4" y="-35.4" width="116.7" height="116.7"/>
		</defs>
		<clipPath id="SVGID_00000085956055998405581950000004520730448404664485_">
			<use xlink:href="#SVGID_00000090990175059853857480000004005585346200901265_"  style="overflow:visible;"/>
		</clipPath>
		<path style="clip-path:url(#SVGID_00000085956055998405581950000004520730448404664485_);fill:none;" d="M-22.7-27.7"/>
	</g>
</g>
<g>
	<g>
		<defs>
			<rect id="SVGID_00000026880827494659400350000010341152365600064140_" x="-35.4" y="-35.4" width="116.7" height="116.7"/>
		</defs>
		<clipPath id="SVGID_00000087389747057320177020000011244859233773108125_">
			<use xlink:href="#SVGID_00000026880827494659400350000010341152365600064140_"  style="overflow:visible;"/>
		</clipPath>
	</g>
	<g>
		<defs>
			<rect id="SVGID_00000074415834588130971410000017959713924351704738_" x="-35.4" y="-35.4" width="116.7" height="116.7"/>
		</defs>
		<defs>
			<path id="SVGID_00000133504581380220991800000003102666167105582270_" d="M-22.7-25.2c-1.4,0-2.5,1.2-2.5,2.5v91.4
				c0,1.4,1.2,2.5,2.5,2.5h91.4c1.4,0,2.5-1.2,2.5-2.5v-91.4c0-1.4-1.2-2.5-2.5-2.5L-22.7-25.2L-22.7-25.2z"/>
		</defs>
		<clipPath id="SVGID_00000001661669607575773520000012232703146866813342_">
			<use xlink:href="#SVGID_00000074415834588130971410000017959713924351704738_"  style="overflow:visible;"/>
		</clipPath>
		
			<clipPath id="SVGID_00000017506741524251919150000011374301585002600597_" style="clip-path:url(#SVGID_00000001661669607575773520000012232703146866813342_);">
			<use xlink:href="#SVGID_00000133504581380220991800000003102666167105582270_"  style="overflow:visible;"/>
		</clipPath>
	</g>
</g>
<path class="st2" d="M41.8,33.8c-0.4,1.2-0.8,2.3-1.4,3.4c-0.6,1.1-1.1,2.1-1.7,3c-0.6,0.9-1.2,1.7-1.8,2.4s-1,1.2-1.4,1.5
	c-0.6,0.6-1.3,1-1.9,1.3c-0.7,0.3-1.3,0.5-2.1,0.5c-0.5,0-1-0.1-1.7-0.3c-0.6-0.2-1.3-0.4-2-0.6c-0.7-0.2-1.4-0.4-2.1-0.6
	c-0.7-0.2-1.3-0.3-1.9-0.3s-1.3,0.1-2,0.3s-1.4,0.4-2.2,0.6c-0.7,0.2-1.4,0.4-2,0.6c-0.6,0.2-1.1,0.3-1.5,0.3
	c-0.6,0-1.1-0.1-1.6-0.3s-1.1-0.5-1.6-0.9c-0.6-0.4-1.2-1-1.8-1.8S9.8,41.2,9,40.1c-0.7-1-1.4-2.2-2-3.4s-1.1-2.5-1.5-3.9
	c-0.4-1.3-0.8-2.7-1-4c-0.2-1.4-0.3-2.7-0.3-3.9c0-2,0.3-3.8,0.9-5.5s1.4-3.1,2.4-4.4c1-1.2,2.3-2.2,3.6-2.9c1.4-0.7,2.9-1,4.5-1
	c0.5,0,1.1,0.1,1.9,0.3s1.6,0.4,2.4,0.7c0.8,0.2,1.5,0.5,2.2,0.7c0.6,0.2,1,0.3,1.2,0.3c0.1,0,0.4-0.1,1-0.3s1.4-0.5,2.2-0.7
	c0.8-0.3,1.7-0.5,2.6-0.7s1.7-0.3,2.3-0.3c2,0,3.8,0.4,5.3,1.3c1.6,0.8,2.8,2,3.8,3.3c-1.7,1-3,2.3-3.8,3.7c-0.8,1.4-1.2,3.1-1.2,5
	c0,2,0.5,3.9,1.6,5.6C38.3,31.7,39.8,32.9,41.8,33.8z M32.2,0c0,0.2,0,0.3,0,0.5s0,0.3,0,0.5c0,1.2-0.2,2.4-0.7,3.5
	c-0.5,1.2-1.1,2.2-2,3.1c-0.8,0.9-1.7,1.7-2.8,2.2c-1,0.6-2.1,0.8-3.2,0.8c-0.4,0-0.7-0.1-0.7-0.2c0-0.2,0-0.4,0-0.7
	c0-1.1,0.3-2.3,0.8-3.4s1.2-2.2,2-3.1s1.8-1.7,2.9-2.3C29.8,0.4,30.9,0.1,32.2,0z"/>
</svg>
