<?xml version="1.0" encoding="utf-8"?>
<!-- Generator: Adobe Illustrator 25.4.1, SVG Export Plug-In . SVG Version: 6.00 Build 0)  -->
<svg version="1.1" id="Layer_1" xmlns="http://www.w3.org/2000/svg" xmlns:xlink="http://www.w3.org/1999/xlink" x="0px" y="0px"
	 viewBox="0 0 46 46" style="enable-background:new 0 0 46 46;" xml:space="preserve">
<style type="text/css">
	.st0{fill:none;}
	.st1{fill:#FFFFFF;}
</style>
<g>
	<g>
		<path class="st0" d="M-22.7-27.7"/>
	</g>
</g>
<path class="st1" d="M44.5,18.8H23v8.8h12.3c-0.5,2.9-2.1,5.3-4.6,6.9v0.1c-2,1.4-4.7,2.2-7.7,2.2c-5.9,0-11-4-12.8-9.4h-0.1
	l0.1-0.1C9.8,26,9.5,24.5,9.5,23s0.3-3,0.7-4.3v-0.3c2-5.3,7-9.2,12.8-9.2c3.4,0,6.4,1.2,8.7,3.4l6.5-6.5c-4-3.7-9.1-5.9-15.3-5.9
	C14,0.2,6.3,5.3,2.5,12.8l0.1,0.1C1,15.8,0.2,19.3,0.2,23c0,3.7,0.8,7.2,2.4,10.3C6.4,40.7,14.1,45.8,23,45.8c6.2,0,11.3-2,15.1-5.5
	L38,40.2h0.1c4.3-3.9,6.8-9.7,6.8-16.7C44.9,21.9,44.8,20.3,44.5,18.8z"/>
</svg>
