<?xml version="1.0" encoding="utf-8"?>
<!-- Generator: Adobe Illustrator 25.4.1, SVG Export Plug-In . SVG Version: 6.00 Build 0)  -->
<svg version="1.1" id="Layer_1" xmlns="http://www.w3.org/2000/svg" xmlns:xlink="http://www.w3.org/1999/xlink" x="0px" y="0px"
	 viewBox="0 0 46 46" style="enable-background:new 0 0 46 46;" xml:space="preserve">
<style type="text/css">
	.st0{clip-path:url(#SVGID_00000097461480230699259410000013224887646291576242_);}
	.st1{clip-path:url(#SVGID_00000128454114676238902980000007794821500742566314_);}
	.st2{clip-path:url(#SVGID_00000026877257953401967180000002684292718301413260_);}
	.st3{clip-path:url(#SVGID_00000063604479272870279950000015114612754116628927_);}
	.st4{clip-path:url(#SVGID_00000179644995605429740140000018068904604483338409_);}
	.st5{clip-path:url(#SVGID_00000002354036489620510520000011892066035098966916_);}
	.st6{clip-path:url(#SVGID_00000021802043022456386360000014478023098243256503_);fill:#3E82F1;}
	.st7{clip-path:url(#SVGID_00000167359756646605085650000015046873350007405218_);}
	.st8{clip-path:url(#SVGID_00000059996021925100588910000009575245522542698144_);}
	.st9{clip-path:url(#SVGID_00000075849628475243287830000014546655593326277015_);fill:#32A753;}
	.st10{clip-path:url(#SVGID_00000099653965841495227680000007259166820738569350_);}
	.st11{clip-path:url(#SVGID_00000089547489875782109240000009285580436339146134_);}
	.st12{clip-path:url(#SVGID_00000043421540146679729900000017521225189262920321_);fill:#F9BB00;}
	.st13{clip-path:url(#SVGID_00000045618495732128545830000017022194404939858587_);}
	.st14{clip-path:url(#SVGID_00000016784517531869590680000003869238323360344996_);}
	.st15{clip-path:url(#SVGID_00000045601078450363345880000014425437633344853646_);fill:#E74235;}
</style>
<g>
	<defs>
		<rect id="SVGID_1_" x="-35.4" y="-35.4" width="116.7" height="116.7"/>
	</defs>
	<defs>
		<path id="SVGID_00000117649583868418341990000002009877860528963504_" d="M-22.7-27.7"/>
	</defs>
	<defs>
		<path id="SVGID_00000008848971462819374330000017757967979365660827_" d="M-37.9-37.9H83.9V83.9H-37.9V-37.9z M-37.9-37.9"/>
	</defs>
	<clipPath id="SVGID_00000054239298777808715430000000221854345944304796_">
		<use xlink:href="#SVGID_1_"  style="overflow:visible;"/>
	</clipPath>
	
		<clipPath id="SVGID_00000096024440901209529520000015145608063697415089_" style="clip-path:url(#SVGID_00000054239298777808715430000000221854345944304796_);">
		<use xlink:href="#SVGID_00000117649583868418341990000002009877860528963504_"  style="overflow:visible;"/>
	</clipPath>
	
		<clipPath id="SVGID_00000045606606681442479910000006575651196875843497_" style="clip-path:url(#SVGID_00000096024440901209529520000015145608063697415089_);">
		<use xlink:href="#SVGID_00000008848971462819374330000017757967979365660827_"  style="overflow:visible;"/>
	</clipPath>
</g>
<g>
	<defs>
		<rect id="SVGID_00000026140395066231543450000003204134606927149741_" x="-35.4" y="-35.4" width="116.7" height="116.7"/>
	</defs>
	<defs>
		<path id="SVGID_00000045587759812769742470000004901957567120625828_" d="M-22.7-25.2c-1.4,0-2.5,1.2-2.5,2.5v91.4
			c0,1.4,1.2,2.5,2.5,2.5h91.4c1.4,0,2.5-1.2,2.5-2.5v-91.4c0-1.4-1.2-2.5-2.5-2.5H-22.7L-22.7-25.2z M-22.7-25.2"/>
	</defs>
	<defs>
		<path id="SVGID_00000121246657934351575560000008052318676938317470_" d="M-37.9-37.9H83.9V83.9H-37.9V-37.9z M-37.9-37.9"/>
	</defs>
	<clipPath id="SVGID_00000040537327499790894260000009373380882078434442_">
		<use xlink:href="#SVGID_00000026140395066231543450000003204134606927149741_"  style="overflow:visible;"/>
	</clipPath>
	
		<clipPath id="SVGID_00000088834860691620528880000012686989768697119672_" style="clip-path:url(#SVGID_00000040537327499790894260000009373380882078434442_);">
		<use xlink:href="#SVGID_00000045587759812769742470000004901957567120625828_"  style="overflow:visible;"/>
	</clipPath>
	
		<clipPath id="SVGID_00000140733689282242377870000015010358118074667162_" style="clip-path:url(#SVGID_00000088834860691620528880000012686989768697119672_);">
		<use xlink:href="#SVGID_00000121246657934351575560000008052318676938317470_"  style="overflow:visible;"/>
	</clipPath>
</g>
<g>
	<defs>
		<rect id="SVGID_00000030470919928364076750000018319904274342659499_" x="-35.4" y="-35.4" width="116.7" height="116.7"/>
	</defs>
	<defs>
		<path id="SVGID_00000102504333211642236410000006871239718888697270_" d="M44.9,23.5c0-1.6-0.1-3.2-0.4-4.7H23v8.8h12.3
			c-0.5,2.9-2.1,5.3-4.6,6.9v5.7h7.4C42.4,36.3,44.9,30.5,44.9,23.5L44.9,23.5L44.9,23.5z M44.9,23.5"/>
	</defs>
	<defs>
		<path id="SVGID_00000140710205176293222490000017390692240565581454_" d="M-37.9-37.9H83.9V83.9H-37.9V-37.9z M-37.9-37.9"/>
	</defs>
	<clipPath id="SVGID_00000091728541913285254460000014716498510027504796_">
		<use xlink:href="#SVGID_00000030470919928364076750000018319904274342659499_"  style="overflow:visible;"/>
	</clipPath>
	
		<clipPath id="SVGID_00000121961480712838150010000007493125822353958047_" style="clip-path:url(#SVGID_00000091728541913285254460000014716498510027504796_);">
		<use xlink:href="#SVGID_00000102504333211642236410000006871239718888697270_"  style="overflow:visible;"/>
	</clipPath>
	
		<clipPath id="SVGID_00000170267939957464551170000016839985827266812309_" style="clip-path:url(#SVGID_00000121961480712838150010000007493125822353958047_);">
		<use xlink:href="#SVGID_00000140710205176293222490000017390692240565581454_"  style="overflow:visible;"/>
	</clipPath>
	
		<rect x="10.3" y="6.2" style="clip-path:url(#SVGID_00000170267939957464551170000016839985827266812309_);fill:#3E82F1;" width="47.3" height="46.8"/>
</g>
<g>
	<defs>
		<rect id="SVGID_00000005975644725602843060000007035526625582292875_" x="-35.4" y="-35.4" width="116.7" height="116.7"/>
	</defs>
	<defs>
		<path id="SVGID_00000050657280190612670720000003257541607991576997_" d="M23,45.8c6.2,0,11.3-2,15.1-5.5l-7.4-5.7
			c-2,1.4-4.7,2.2-7.7,2.2c-5.9,0-11-4-12.8-9.4H2.6v5.9C6.4,40.7,14.1,45.8,23,45.8L23,45.8L23,45.8z M23,45.8"/>
	</defs>
	<defs>
		<path id="SVGID_00000163774340317602121030000003657975783102732207_" d="M-37.9-37.9H83.9V83.9H-37.9V-37.9z M-37.9-37.9"/>
	</defs>
	<clipPath id="SVGID_00000136407463261040022900000015220875770437544076_">
		<use xlink:href="#SVGID_00000005975644725602843060000007035526625582292875_"  style="overflow:visible;"/>
	</clipPath>
	
		<clipPath id="SVGID_00000105412398964324884780000003282679824339468417_" style="clip-path:url(#SVGID_00000136407463261040022900000015220875770437544076_);">
		<use xlink:href="#SVGID_00000050657280190612670720000003257541607991576997_"  style="overflow:visible;"/>
	</clipPath>
	
		<clipPath id="SVGID_00000122685177408708915660000017232460035617659037_" style="clip-path:url(#SVGID_00000105412398964324884780000003282679824339468417_);">
		<use xlink:href="#SVGID_00000163774340317602121030000003657975783102732207_"  style="overflow:visible;"/>
	</clipPath>
	
		<rect x="-10.1" y="14.7" style="clip-path:url(#SVGID_00000122685177408708915660000017232460035617659037_);fill:#32A753;" width="60.9" height="43.9"/>
</g>
<g>
	<defs>
		<rect id="SVGID_00000103975706020393307540000018170855037786078116_" x="-35.4" y="-35.4" width="116.7" height="116.7"/>
	</defs>
	<defs>
		<path id="SVGID_00000116199803245578031990000016053998668720037779_" d="M10.2,27.3C9.8,26,9.5,24.5,9.5,23c0-1.5,0.3-3,0.7-4.3
			v-5.9H2.6C1,15.8,0.2,19.3,0.2,23S1,30.2,2.6,33.3L10.2,27.3L10.2,27.3L10.2,27.3z M10.2,27.3"/>
	</defs>
	<defs>
		<path id="SVGID_00000018959370986511140000000012224588724505914773_" d="M-37.9-37.9H83.9V83.9H-37.9V-37.9z M-37.9-37.9"/>
	</defs>
	<clipPath id="SVGID_00000182494719985167551050000013960342776942709647_">
		<use xlink:href="#SVGID_00000103975706020393307540000018170855037786078116_"  style="overflow:visible;"/>
	</clipPath>
	
		<clipPath id="SVGID_00000170961701545451221990000009854230553564077964_" style="clip-path:url(#SVGID_00000182494719985167551050000013960342776942709647_);">
		<use xlink:href="#SVGID_00000116199803245578031990000016053998668720037779_"  style="overflow:visible;"/>
	</clipPath>
	
		<clipPath id="SVGID_00000050656712104131311480000016559636509233173149_" style="clip-path:url(#SVGID_00000170961701545451221990000009854230553564077964_);">
		<use xlink:href="#SVGID_00000018959370986511140000000012224588724505914773_"  style="overflow:visible;"/>
	</clipPath>
	
		<rect x="-12.5" y="0.1" style="clip-path:url(#SVGID_00000050656712104131311480000016559636509233173149_);fill:#F9BB00;" width="35.4" height="45.9"/>
</g>
<g>
	<defs>
		<rect id="SVGID_00000142855085366789589330000005839107427574719641_" x="-35.4" y="-35.4" width="116.7" height="116.7"/>
	</defs>
	<defs>
		<path id="SVGID_00000072981014052988836110000013689541816719593370_" d="M23,9.2c3.4,0,6.4,1.2,8.7,3.4l6.5-6.5
			c-4-3.7-9.1-5.9-15.3-5.9c-8.9,0-16.6,5.1-20.4,12.6l7.6,5.9C12,13.3,17.1,9.2,23,9.2L23,9.2L23,9.2z M23,9.2"/>
	</defs>
	<defs>
		<path id="SVGID_00000120539188512517774620000005516500591174001027_" d="M-37.9-37.9H83.9V83.9H-37.9V-37.9z M-37.9-37.9"/>
	</defs>
	<clipPath id="SVGID_00000108283646491676395880000009738530155192857729_">
		<use xlink:href="#SVGID_00000142855085366789589330000005839107427574719641_"  style="overflow:visible;"/>
	</clipPath>
	
		<clipPath id="SVGID_00000083057567722122281150000014763776078924504767_" style="clip-path:url(#SVGID_00000108283646491676395880000009738530155192857729_);">
		<use xlink:href="#SVGID_00000072981014052988836110000013689541816719593370_"  style="overflow:visible;"/>
	</clipPath>
	
		<clipPath id="SVGID_00000036940163705739428190000015154745484069482936_" style="clip-path:url(#SVGID_00000083057567722122281150000014763776078924504767_);">
		<use xlink:href="#SVGID_00000120539188512517774620000005516500591174001027_"  style="overflow:visible;"/>
	</clipPath>
	
		<rect x="-10.1" y="-12.5" style="clip-path:url(#SVGID_00000036940163705739428190000015154745484069482936_);fill:#E74235;" width="61.1" height="43.9"/>
</g>
</svg>
